<svg xmlns="http://www.w3.org/2000/svg" height="1200" width="1600" version="1.1" xmlns:xlink="http://www.w3.org/1999/xlink" xmlns:svgjs="http://svgjs.com/svgjs"><rect fill="#f3ebe9" width="1600" height="1200"></rect><g><path d="M1313.61 796.14C1344.29 806.31 1372.53 826.72 1381.98 854 1391.36 881.17 1381.95 915.21 1363.51 943.55 1345.14 972 1317.86 994.67 1289.79 996.47 1261.76 998.08 1232.91 978.52 1209.54 954.06 1186.18 929.59 1168.11 900.18 1170.17 871.37 1172.35 842.49 1194.72 814.33 1222.29 800.09 1249.94 785.95 1282.93 785.97 1313.61 796.14Z" fill="#ffffff" opacity="1" stroke-width="4" stroke="none"></path></g><g><path d="M1239.73 224.15C1255.56 242.65 1265.84 266.8 1261.31 288.08 1256.79 309.25 1237.47 327.55 1214.55 338.65 1191.63 349.85 1165.21 353.86 1146.41 344.09 1127.7 334.23 1116.7 310.38 1111.15 285.51 1105.6 260.64 1105.4 234.63 1117.93 216.85 1130.58 199.07 1155.96 189.61 1179.3 191.16 1202.63 192.8 1223.9 205.65 1239.73 224.15Z" fill="#ffffff" opacity="1" stroke-width="4" stroke="none"></path></g><g><path d="M956.32 512.68H1272.16C1296.53 512.68 1316.27 532.42 1316.27 556.79V872.52C1316.27 896.89 1296.53 916.63 1272.16 916.63H956.32C931.95 916.63 912.21 896.89 912.21 872.52V556.68C912.21 532.42 931.95 512.68 956.32 512.68Z" stroke="#231f20" stroke-width="4" stroke-linecap="round" stroke-linejoin="round" opacity="1" fill="none"></path><path d="M978.59 562.3V867.33" stroke="#231f20" stroke-width="4" stroke-linecap="round" stroke-linejoin="round" opacity="1" fill="none"></path><path d="M1267.08 850.13H961.17" stroke="#231f20" stroke-width="4" stroke-linecap="round" stroke-linejoin="round" opacity="1" fill="none"></path><path d="M961.39 603.66H999.55C1007.38 603.66 1013.66 609.94 1013.66 617.77 1013.66 625.6 1019.95 631.89 1027.78 631.89H1031.75C1037.92 631.89 1043.33 635.86 1045.2 641.81L1095.16 803.7C1099.02 816.27 1110.6 824.77 1123.72 824.77 1137.29 824.77 1149.09 815.72 1152.61 802.6L1182.5 691.22C1185.92 678.43 1197.5 669.6 1210.62 669.6H1266.75" stroke="#231f20" stroke-width="4" stroke-linecap="round" stroke-linejoin="round" opacity="1" fill="none"></path><path d="M1249.55 651.63L1267.08 669.16 1249.55 686.7" stroke="#231f20" stroke-width="4" stroke-linecap="round" stroke-linejoin="round" opacity="1" fill="none"></path><path d="M1203.34 572.78L1225.73 561.97 1236.54 584.36" stroke="#ff9edd" stroke-width="4" stroke-linecap="round" stroke-linejoin="round" opacity="1" fill="none"></path><path d="M961.39 727.83H1010.24C1020.94 727.83 1031.09 732.79 1037.59 741.28L1042.33 747.46C1051.38 759.15 1065.38 765.99 1080.27 765.99 1102.11 765.99 1121.18 751.21 1126.7 730.04L1149.53 641.37C1151.73 632.99 1159.23 627.15 1167.83 627.15H1188.23C1198.6 627.15 1207.64 620.42 1210.73 610.49L1225.51 562.19" stroke="#ff9edd" stroke-width="4" stroke-linecap="round" stroke-linejoin="round" opacity="1" fill="none"></path></g><g><path d="M393.25 226.46H727.94C753.76 226.46 774.66 249 774.66 276.95V698.6C774.66 726.44 753.76 748.98 727.94 748.98H393.25C367.43 748.98 346.52 726.44 346.52 698.6V276.95C346.52 249.11 367.43 226.46 393.25 226.46Z" fill="#ff9edd" opacity="1" stroke-width="4" stroke="none"></path></g><g><path d="M641.69 518.66C635.32 514.98 632.83 507.33 636.15 501.59 639.46 495.85 647.32 494.18 653.7 497.86 660.08 501.54 662.56 509.18 659.24 514.93 655.93 520.67 648.07 522.34 641.69 518.66Z" fill="#ffc930" opacity="1" stroke-width="4" stroke="none"></path><path d="M560.59 666.96C477.92 666.96 410.89 599.93 410.89 517.26 410.89 434.58 477.92 367.56 560.59 367.56 643.27 367.56 710.29 434.58 710.29 517.26 710.29 599.93 643.27 666.96 560.59 666.96Z" fill="#ffffff" opacity="1" stroke-width="4" stroke="none"></path><path d="M636.03 501.64C629.33 497.66 621.08 492.5 621.08 492.5" stroke="#151207" stroke-width="4" stroke-linecap="round" stroke-linejoin="round" opacity="1" fill="none"></path><path d="M622.92 549.89L622.77 549.82C608.04 545.03 592.79 543.93 591.17 543.78V529.04C591.68 529.12 593.38 529.26 595.73 529.26 601.41 529.26 611.79 528.16 617.91 520.79 624.61 512.69 622.84 501.79 620.71 489.11 620.04 484.91 619.31 480.57 618.87 476.15 618.79 475.12 618.64 474.01 618.57 472.91 616.95 455.74 614.52 432.24 591.17 425.31 585.27 423.62 578.57 422.74 571.79 422.74 559.71 422.74 549.17 425.9 541.07 430.99 531.49 436.95 526.92 445.8 526.92 456.77 526.92 480.86 528.47 540.54 528.62 543.78 518.6 545.1 508.73 547.76 499.3 551.44L499.08 551.51 575.11 626.14 622.92 549.89Z" fill="#cf5934" opacity="1" stroke-width="4" stroke="none"></path><path d="M591.09 529.04H590.8C584.76 528.38 578.94 526.98 573.12 525.29L572.97 525.58 591.17 539.28 591.09 529.04Z" fill="#030202" opacity="0.2" stroke-width="4" stroke="none"></path><path d="M601.04 491.18L601.33 490.88C602.29 490.07 602.66 488.67 602.14 487.49L601.63 485.36" stroke="#000000" stroke-width="4" stroke-linecap="round" stroke-linejoin="round" opacity="1" fill="none"></path><path d="M595.22 498.54C597.8 501.79 602.22 501.64 603.62 500.53" stroke="#000000" stroke-width="4" stroke-linecap="round" stroke-linejoin="round" opacity="1" fill="none"></path><path d="M609.88 481.08C608.29 481.08 607 479.79 607 478.21 607 476.63 608.29 475.34 609.88 475.34 611.46 475.34 612.75 476.63 612.75 478.21 612.75 479.79 611.46 481.08 609.88 481.08Z" fill="#010005" opacity="1" stroke-width="4" stroke="none"></path><path d="M587.63 483.74C586.05 483.74 584.76 482.45 584.76 480.86 584.76 479.27 586.05 477.99 587.63 477.99 589.21 477.99 590.5 479.27 590.5 480.86 590.5 482.45 589.21 483.74 587.63 483.74Z" fill="#010005" opacity="1" stroke-width="4" stroke="none"></path><path d="M592.34 529.19C582.99 528.23 572.97 524.4 572.97 524.4" stroke="#000000" stroke-width="4" stroke-linecap="round" stroke-linejoin="round" opacity="1" fill="none"></path><path d="M560.74 666.96C583.21 666.96 605.83 661.73 626.01 651.93 646.27 642.13 664.25 627.62 678.17 609.93L678.24 609.79V609.71C674.41 601.17 660.27 572.14 640.16 558.07 634.34 554.02 626.45 550.63 616.73 548.05H616.66L573.19 615.9 503.94 549.67H503.87C493.04 553.5 484.27 558.36 477.79 564.26 464.23 576.56 449.79 597.48 442.42 608.9L442.35 609.05 442.42 609.12C456.35 627.03 474.4 641.76 494.73 651.71 515.06 661.65 537.83 666.96 560.44 666.96H560.74V666.96Z" fill="#ffc930" opacity="1" stroke-width="4" stroke="none"></path><path d="M477.64 602.13C496.72 602.13 509.83 584.44 510.86 583.04 511.75 583.34 518.53 585.18 526.92 585.18 536.72 585.18 550.28 582.6 559.04 570.52 574.96 548.42 558.31 517.18 558.16 516.89 558.16 516.89 531.57 502.45 539.45 486.68 541.36 482.85 545.12 480.86 550.72 480.86 557.72 480.86 565.01 484.03 565.09 484.03L565.23 484.1 565.31 484.03C570.91 476.07 567.96 464.51 568.82 464.07 569.06 463.48 577.68 469.81 583.87 469.81 585.79 469.81 587.33 469.22 588.44 468.04 593.74 462.45 587.63 451.39 588.62 451.7 592.42 452.72 598.83 454.64 605.24 454.64 611.42 454.64 615.33 452.65 615.4 452.65L615.62 452.57C611.79 437.62 603.98 428.48 591.09 424.8 585.2 423.1 578.42 422 571.64 422 559.56 422 548.51 425.24 540.41 430.32 530.83 436.29 525.82 445.28 525.82 456.26 525.82 464.07 526.11 476.3 526.63 492.65 524.57 491.32 509.24 481.97 493.33 481.97 483.38 481.97 475.13 485.58 468.8 492.65 462.39 499.87 461.5 509.67 461.95 516.67 462.31 523.59 464.01 529.19 464.3 530.08 452.81 535.38 443.97 548.49 442.28 562.64 440.8 575.01 444.85 585.62 453.7 592.7 461.5 599.03 469.61 602.13 477.64 602.13Z" fill="#010005" opacity="1" stroke-width="4" stroke="none"></path><path d="M543.79 524.33C527.56 524.33 514.4 511.17 514.4 494.93 514.4 478.7 527.56 465.54 543.79 465.54 560.03 465.54 573.19 478.7 573.19 494.93 573.19 511.17 560.03 524.33 543.79 524.33Z" fill="#ffc930" opacity="1" stroke-width="4" stroke="none"></path><path d="M543.79 506.5C537.41 506.5 532.23 501.32 532.23 494.93 532.23 488.55 537.41 483.37 543.79 483.37 550.18 483.37 555.36 488.55 555.36 494.93 555.36 501.32 550.18 506.5 543.79 506.5Z" fill="#efe2c0" opacity="1" stroke-width="4" stroke="none"></path><path d="M574 422.07C563.02 402.33 549.1 404.02 544.68 406.68 533.7 413.23 534.95 434.3 539.3 465.06" stroke="#151207" stroke-width="4" stroke-linecap="round" stroke-linejoin="round" opacity="1" fill="none"></path><path d="M573.19 616.12V666.07" stroke="#181818" stroke-width="4" stroke-linecap="round" stroke-linejoin="round" opacity="1" fill="none"></path><path d="M626.16 633.66L629.92 649.94" stroke="#181818" stroke-width="4" stroke-linecap="round" stroke-linejoin="round" opacity="1" fill="none"></path><path d="M507.25 637.64L499.44 653.55" stroke="#181818" stroke-width="4" stroke-linecap="round" stroke-linejoin="round" opacity="1" fill="none"></path><path d="M464.45 530.59C467.03 539.36 470.71 544.51 470.71 544.51" stroke="#000000" stroke-width="4" stroke-linecap="round" stroke-linejoin="round" opacity="1" fill="none"></path><path d="M511.45 582.31C516.32 576.78 520.81 570.3 520.81 570.3" stroke="#000000" stroke-width="4" stroke-linecap="round" stroke-linejoin="round" opacity="1" fill="none"></path></g><g><path d="M679.47 330.68C672.28 330.68 666.44 324.83 666.44 317.65V275.63C666.44 268.44 672.28 262.6 679.47 262.6H728.18C735.37 262.6 741.21 268.44 741.21 275.63V317.65C741.21 324.83 735.37 330.68 728.18 330.68H679.47Z" fill="#f3ebe9" opacity="1" stroke-width="4" stroke="none"></path><path d="M690.02 310.87C686.86 310.87 684.29 308.3 684.29 305.13V288.14C684.29 284.97 686.86 282.4 690.02 282.4H708.14C711.3 282.4 713.88 284.97 713.88 288.14V305.13C713.88 308.3 711.3 310.87 708.14 310.87H690.02Z" fill="#000000" opacity="1" stroke-width="4" stroke="none"></path><path d="M721.73 307.94C721.1 307.94 720.5 307.73 720.01 307.34L709.54 298.99C709.38 298.86 709.23 298.71 709.1 298.55 708.65 297.98 708.44 297.26 708.52 296.53 708.6 295.8 708.97 295.15 709.54 294.69L720.01 286.34C720.5 285.95 721.11 285.74 721.73 285.74 723.24 285.74 724.47 286.97 724.47 288.49V305.19C724.47 305.81 724.26 306.42 723.87 306.9 723.35 307.56 722.56 307.94 721.73 307.94Z" fill="#000000" opacity="1" stroke-width="4" stroke="none"></path></g><g><path d="M423.96 815.35L352.5 855.75C342.93 861.19 331.35 861.19 321.78 855.75L250.32 815.35C244.53 812.05 242.52 804.72 245.71 798.93 246.77 797.04 248.31 795.51 250.32 794.33L321.78 753.93C331.35 748.49 342.93 748.49 352.5 753.93L423.96 794.45C429.75 797.75 431.76 805.08 428.57 810.87 427.51 812.76 425.85 814.29 423.96 815.35Z" fill="#ffffff" opacity="1" stroke-width="4" stroke="none"></path><path d="M423.96 776.37L352.5 816.77C342.93 822.21 331.35 822.21 321.78 816.77L250.32 776.37C244.53 773.06 242.52 765.74 245.71 759.95 246.77 758.06 248.31 756.53 250.32 755.35L321.78 714.95C331.35 709.51 342.93 709.51 352.5 714.95L423.96 755.46C429.75 758.77 431.76 766.09 428.57 771.88 427.51 773.77 425.85 775.31 423.96 776.37Z" fill="#61ccff" opacity="1" stroke-width="4" stroke="none"></path></g><g><path d="M1313.48 444.38C1353.34 444.38 1385.65 476.69 1385.65 516.55 1385.65 556.41 1353.34 588.72 1313.48 588.72 1273.62 588.72 1241.31 556.41 1241.31 516.55 1241.31 476.69 1273.62 444.38 1313.48 444.38Z" fill="#61ccff" opacity="1" stroke-width="4" stroke="none"></path><path d="M1350.47 502.04C1351.35 504.67 1350.34 507.57 1348.04 509.13 1347.98 509.13 1347.98 509.19 1348.04 509.26 1349.66 509.87 1350.88 511.22 1351.42 512.84 1352.3 515.47 1351.29 518.38 1348.99 519.93 1348.92 519.93 1348.92 520 1348.99 520.06 1351.02 520.87 1352.37 522.76 1352.64 524.92 1353.04 527.76 1351.08 530.6 1348.31 531.54 1338.46 534.78 1325.29 540.39 1314.9 540.79 1312.6 540.99 1310.51 539.64 1309.76 537.48L1298.76 505.68C1298.36 504.47 1298.42 503.19 1298.9 502.04 1301.46 496.37 1309.29 478.88 1310.78 476.86 1312.6 474.43 1316.31 474.22 1317.8 479.15 1319.35 484.42 1319.62 489.95 1319.96 494.75 1319.96 494.81 1320.03 494.81 1320.03 494.81L1338.66 488.4C1344.53 486.31 1349.87 492.99 1345.75 497.99 1345.75 498.05 1345.75 498.05 1345.82 498.12 1348.04 498.53 1349.73 500.01 1350.47 502.04Z" fill="#ffffff" opacity="1" stroke-width="4" stroke="none"></path><path d="M1292.68 505.08L1306.05 543.69C1306.66 545.58 1305.71 547.61 1303.82 548.28L1290.32 552.94C1288.43 553.55 1286.41 552.6 1285.73 550.71L1272.36 512.03C1271.62 510.14 1272.97 507.91 1274.59 507.44 1274.93 507.3 1288.09 502.78 1288.16 502.78 1290.12 502.11 1292.08 503.32 1292.68 505.08Z" fill="#ffffff" opacity="1" stroke-width="4" stroke="none"></path></g><g><path d="M205.58 610.85C216.39 559.71 245.67 498.23 298.8 510.19 366.26 525.44 382.05 672.64 342.11 668.65 307.92 665.2 314.74 520.46 396.85 534.11" stroke="#231f20" stroke-width="4" stroke-linecap="round" stroke-linejoin="round" opacity="1" fill="none"></path></g><g><path d="M1215.18 374.9L1167.55 339.67 1208.88 305.68C1209.6 305.06 1209.81 304.02 1209.4 303.2 1208.98 302.37 1207.95 301.85 1207.02 302.16L1157.12 314.46 1149.99 263.42C1149.89 262.49 1149.06 261.67 1148.13 261.67 1147.1 261.56 1146.27 262.18 1145.96 263.21L1131.19 316.11 1065.38 299.06C1064.34 298.86 1063.41 299.27 1063 300.2 1062.59 301.13 1062.9 302.27 1063.72 302.78L1116.83 336.98 1062.38 381.61C1061.55 382.23 1061.35 383.37 1061.86 384.3 1062.38 385.13 1063.41 385.54 1064.45 385.13L1128.29 359.4 1137.18 406.82C1137.39 407.75 1138.21 408.47 1139.14 408.47 1139.14 408.47 1139.14 408.47 1139.25 408.47 1140.18 408.47 1141 407.85 1141.21 406.92L1153.19 360.64 1213.22 378.62C1214.15 378.93 1215.18 378.41 1215.7 377.58 1216.21 376.55 1216.01 375.52 1215.18 374.9Z" fill="#ff9edd" opacity="1" stroke-width="4" stroke="none"></path><path d="M1101.02 259.39L1090.38 241.31" stroke="#231f20" stroke-width="4" stroke-linecap="round" stroke-linejoin="round" opacity="1" fill="none"></path><path d="M1182.02 278.61L1188.32 269" stroke="#231f20" stroke-width="4" stroke-linecap="round" stroke-linejoin="round" opacity="1" fill="none"></path><path d="M1202.16 411.68L1212.81 422.32" stroke="#231f20" stroke-width="4" stroke-linecap="round" stroke-linejoin="round" opacity="1" fill="none"></path><path d="M1059.59 338.22H1037.17" stroke="#231f20" stroke-width="4" stroke-linecap="round" stroke-linejoin="round" opacity="1" fill="none"></path></g><g><path d="M390.14 378.9L341.25 342.74 383.67 307.85C384.42 307.21 384.63 306.15 384.2 305.3 383.78 304.45 382.72 303.92 381.77 304.24L330.54 316.86 323.23 264.47C323.12 263.52 322.27 262.67 321.32 262.67 320.26 262.56 319.41 263.2 319.09 264.26L303.92 318.56 236.37 301.06C235.31 300.85 234.36 301.27 233.93 302.23 233.51 303.18 233.83 304.35 234.67 304.88L289.18 339.98 233.3 385.79C232.45 386.43 232.23 387.6 232.76 388.55 233.3 389.4 234.36 389.82 235.42 389.4L300.96 362.99 310.08 411.67C310.29 412.63 311.14 413.37 312.09 413.37 312.09 413.37 312.09 413.37 312.2 413.37 313.15 413.37 314 412.73 314.21 411.78L326.51 364.27 388.13 382.72C389.08 383.04 390.14 382.51 390.67 381.66 391.2 380.6 390.99 379.54 390.14 378.9Z" fill="#61ccff" opacity="1" stroke-width="4" stroke="none"></path><path d="M272.96 260.34L262.03 241.78" stroke="#231f20" stroke-width="4" stroke-linecap="round" stroke-linejoin="round" opacity="1" fill="none"></path><path d="M356.1 280.06L362.57 270.2" stroke="#231f20" stroke-width="4" stroke-linecap="round" stroke-linejoin="round" opacity="1" fill="none"></path><path d="M376.78 416.66L387.7 427.58" stroke="#231f20" stroke-width="4" stroke-linecap="round" stroke-linejoin="round" opacity="1" fill="none"></path><path d="M230.43 341.25H207.42" stroke="#231f20" stroke-width="4" stroke-linecap="round" stroke-linejoin="round" opacity="1" fill="none"></path></g><g><path d="M764.91 933.04L712.18 894.04 757.93 856.41C758.73 855.72 758.96 854.58 758.5 853.66 758.04 852.75 756.9 852.18 755.87 852.52L700.63 866.13 692.74 809.63C692.62 808.6 691.71 807.68 690.68 807.68 689.53 807.57 688.62 808.26 688.28 809.4L671.92 867.96 599.06 849.09C597.92 848.86 596.89 849.32 596.43 850.35 595.98 851.38 596.32 852.63 597.23 853.21L656.02 891.06 595.75 940.47C594.83 941.16 594.6 942.42 595.17 943.45 595.75 944.36 596.89 944.82 598.03 944.36L668.72 915.88 678.55 968.38C678.78 969.41 679.7 970.21 680.73 970.21 680.73 970.21 680.73 970.21 680.84 970.21 681.87 970.21 682.79 969.52 683.01 968.49L696.28 917.25 762.73 937.16C763.76 937.5 764.91 936.93 765.48 936.01 766.05 934.87 765.82 933.72 764.91 933.04Z" fill="#ffc930" opacity="1" stroke-width="4" stroke="none"></path><path d="M638.52 805.17L626.74 785.15" stroke="#231f20" stroke-width="4" stroke-linecap="round" stroke-linejoin="round" opacity="1" fill="none"></path><path d="M728.19 826.44L735.17 815.8" stroke="#231f20" stroke-width="4" stroke-linecap="round" stroke-linejoin="round" opacity="1" fill="none"></path><path d="M750.5 973.76L762.28 985.54" stroke="#231f20" stroke-width="4" stroke-linecap="round" stroke-linejoin="round" opacity="1" fill="none"></path><path d="M592.66 892.44H567.84" stroke="#231f20" stroke-width="4" stroke-linecap="round" stroke-linejoin="round" opacity="1" fill="none"></path></g><g><path d="M1099.65 996.28L1046.4 1021.99H1046.31L1004.22 990.69C998.54 978.08 996.23 973.45 988.72 958.14 988.72 958.05 988.72 958.05 988.72 958.05 989.87 957.57 1008.84 936.96 1023.87 930.51 1048.13 920.01 1072.79 921.74 1074.71 920.97 1074.81 920.97 1074.81 920.97 1074.81 920.97 1082.71 938.4 1090.8 960.07 1095.71 977.6 1097.73 984.82 1098.88 990.6 1099.75 996.28 1099.75 996.28 1099.75 996.28 1099.65 996.28Z" fill="#d89574" opacity="1" stroke-width="4" stroke="none"></path><path d="M803.92 971.24L854.48 962.77 898.87 971.14 898.97 971.24C898.39 993.77 895.89 1014.38 892.61 1032.2L836.76 1035.57C836.76 1035.57 836.76 1035.57 836.66 1035.57 835.6 1034.6 804.79 1005.81 803.73 1004.85 803.73 1004.85 803.73 1004.85 803.73 1004.75 804.11 990.31 804.11 984.24 803.82 971.24 803.82 971.34 803.92 971.34 803.92 971.24Z" fill="#d89574" opacity="1" stroke-width="4" stroke="none"></path><path d="M757.89 1058.87C767.81 1042.5 803.54 1038.26 803.73 1004.94H828.96C834.64 1004.94 838.97 1010.05 838.01 1015.63L835.89 1028.92 892.71 1032.29C891.75 1040.96 890.11 1049.63 887.99 1058.87L882.12 1064.55 772.05 1066.48 757.89 1058.87Z" fill="#61ccff" opacity="1" stroke-width="4" stroke="none"></path><path d="M887.99 1058.97C886.35 1066.19 884.52 1072.74 883.27 1077.36 883.27 1077.36 883.27 1077.46 883.17 1077.46 880 1077.46 756.93 1077.46 753.17 1077.46 753.07 1077.46 753.07 1077.46 753.07 1077.36 753.07 1069.46 754.9 1063.59 757.89 1058.97 757.89 1058.97 757.89 1058.97 757.99 1058.97 760.78 1058.97 883.56 1058.97 887.89 1058.97 887.89 1058.87 887.99 1058.97 887.99 1058.97Z" fill="#000000" opacity="1" stroke-width="4" stroke="none"></path><path d="M809.41 1035.47L797.37 1026.8" stroke="#000000" stroke-width="4" stroke-linecap="round" stroke-linejoin="round" opacity="1" fill="none"></path><path d="M797.57 1046.83L787.55 1036.92" stroke="#000000" stroke-width="4" stroke-linecap="round" stroke-linejoin="round" opacity="1" fill="none"></path><path d="M843.31 600.87C843.31 600.87 900.03 579.11 900.12 579.11 914.86 575.93 956.94 594.81 959.64 597.7 965.61 605.98 966.28 623.02 966.28 623.22 995.84 680.13 990.07 775.08 1019.63 825.35 1033.02 847.69 1055.45 881.2 1074.81 920.88V920.97C1071.82 922.22 991.61 956.89 988.81 958.05H988.72C984.1 949.09 979.47 940.42 974.76 931.76 955.88 896.99 948.75 885.44 935.27 859.15 931.81 852.31 928.53 845.38 925.55 838.54 915.82 816.87 908.21 795.3 902.24 774.4 902.24 774.31 902.05 774.31 902.05 774.4 890.3 803.29 880.29 831.99 882.89 855.58 887.7 899.4 900.8 925.5 899.16 971.24 899.16 971.34 899.16 971.34 899.06 971.34H804.11C804.02 971.34 804.02 971.34 804.02 971.24 803.82 962.48 803.54 953.23 803.05 942.16 801.71 920.59 799.59 886.59 799.59 854.24 799.39 725.97 843.31 600.87 843.31 600.87Z" fill="#ffc930" opacity="1" stroke-width="4" stroke="none"></path><path d="M837.63 364.65C837.91 363.5 840.32 344.91 840.32 344.82 838.4 318.81 856.89 314.29 856.98 314.19 902.43 297.05 936.43 317.18 930.26 364.08 929.59 377.17 932.67 396.05 931.61 412.71 931.42 415.88 931.23 419.35 931.04 422.24 931.04 422.34 920.25 431 920.25 431L876.92 429.94C876.82 429.94 870.75 424.17 870.75 424.07L871.14 416.27C871.14 416.17 871.04 416.17 871.04 416.17 857.66 419.45 845.52 418 838.78 409.43 833.29 402.4 833.68 389.21 835.89 378.23V378.13C835.31 377.75 828.77 373.42 830.02 369.47 830.88 366.29 836.95 364.85 837.63 364.65Z" fill="#d89574" opacity="1" stroke-width="4" stroke="none"></path><path d="M871.14 416.17C871.81 415.98 878.36 414.15 888.76 407.89 888.86 407.79 888.95 407.99 888.86 408.08L870.85 424.17C870.75 424.26 870.66 424.17 870.66 424.07L870.85 421.08 871.14 416.17C871.04 416.17 871.04 416.17 871.14 416.17Z" fill="#000000" opacity="0.15" stroke-width="4" stroke="none"></path><path d="M663.23 684.65C651.96 690.24 644.74 681.57 649.17 676.18 664.19 658.36 680.18 645.65 697.03 631.5L724.28 644.79 736.99 674.83C736.99 674.83 736.99 674.83 736.99 674.93 735.93 680.8 726.79 696.02 712.73 703.91 704.73 728.66 700.21 739.54 694.43 737.72 689.61 736.17 696.16 715.28 697.22 709.02 697.22 708.92 697.13 708.83 697.03 708.92 692.21 714.22 675.55 752.45 665.73 735.02 656.2 736.66 655.52 727.99 656.39 726.06 635.3 731.65 661.98 686.77 663.23 684.65Z" fill="#d89574" opacity="1" stroke-width="4" stroke="none"></path><path d="M656.49 725.97C656.49 725.97 667.47 701.99 676.23 687.45" stroke="#000000" stroke-width="4" stroke-linecap="round" stroke-linejoin="round" opacity="1" fill="none"></path><path d="M662.94 684.75C662.94 684.75 667.37 678.49 670.35 674.54" stroke="#000000" stroke-width="4" stroke-linecap="round" stroke-linejoin="round" opacity="1" fill="none"></path><path d="M665.92 734.92C665.92 734.92 678.15 711.62 687.78 697.08" stroke="#000000" stroke-width="4" stroke-linecap="round" stroke-linejoin="round" opacity="1" fill="none"></path><path d="M831.65 304.27C845.33 294.84 856.89 306.39 857.66 307.16H857.75C873.26 301.29 893.48 299.46 908.79 307.16 934.69 320.16 936.04 342.79 934.79 364.17 934.21 375.34 932.67 398.07 931.52 412.71 931.52 412.8 931.52 412.8 931.42 412.8 929.98 412.71 910.04 410.88 899.26 396.05V395.95C905.23 392 923.52 370.33 907.54 358.88 895.4 349.82 876.43 368.89 875.37 369.95H875.28C874.12 369.28 853.32 357.62 840.23 344.91 826.74 331.62 820 313.9 831.65 304.27Z" fill="#000000" opacity="1" stroke-width="4" stroke="none"></path><path d="M843.21 388.34C846 389.02 850.14 386.42 850.72 383.72" stroke="#000000" stroke-width="4" stroke-linecap="round" stroke-linejoin="round" opacity="1" fill="none"></path><path d="M870.94 416.17C873.83 415.21 883.37 411.45 888.76 407.89" stroke="#000000" stroke-width="4" stroke-linecap="round" stroke-linejoin="round" opacity="1" fill="none"></path><path d="M889.15 381.99L896.18 376.31" stroke="#000000" stroke-width="4" stroke-linecap="round" stroke-linejoin="round" opacity="1" fill="none"></path><path d="M848.6 364.08C844.85 364.17 844.85 369.76 848.6 369.85 852.36 369.76 852.36 364.17 848.6 364.08Z" fill="#000000" opacity="1" stroke-width="4" stroke="none"></path><path d="M984 1058.49C986.5 1039.52 1017.42 1021.32 1004.22 990.79 1004.22 990.79 1004.22 990.69 1004.32 990.69L1027.33 980.58C1032.53 978.27 1038.6 981.26 1039.95 986.74L1043.32 999.65C1043.32 999.74 1043.42 999.74 1043.42 999.74L1095.61 977.69C1095.71 977.69 1095.71 977.69 1095.71 977.79 1098.21 985.88 1100.91 997.05 1102.83 1006.2 1102.93 1006.39 1102.83 1006 1102.83 1006.2L1097.25 1015.54C1097.25 1015.54 997 1062.72 997 1062.63L984 1058.49Z" fill="#61ccff" opacity="1" stroke-width="4" stroke="none"></path><path d="M928.15 781.72C926.12 806.18 925.45 834.21 925.45 838.06 925.45 838.15 925.35 838.15 925.26 838.06 915.63 816.39 908.02 794.92 902.05 774.12 902.05 774.12 902.05 774.12 902.05 774.02 911.29 751.2 921.69 728.09 927.76 707.28 927.76 707.19 927.86 707.19 927.95 707.28 936.52 718.94 931.52 742.53 928.15 781.72Z" fill="#000000" opacity="0.15" stroke-width="4" stroke="none"></path><path d="M902.05 774.31C902.05 774.31 922.75 731.46 927.76 707.28" stroke="#000000" stroke-width="4" stroke-linecap="round" stroke-linejoin="round" opacity="1" fill="none"></path><path d="M1102.93 1006.1C1104.47 1013.32 1105.63 1020.16 1106.3 1024.97 1106.3 1024.97 1106.3 1025.07 1106.2 1025.07 1103.22 1026.42 990.64 1075.82 987.08 1077.36 986.99 1077.36 986.99 1077.36 986.99 1077.27 983.81 1070.04 983.13 1063.98 983.9 1058.49 983.9 1058.49 983.9 1058.39 984 1058.39L1102.74 1006C1102.83 1006.1 1102.93 1006.1 1102.93 1006.1Z" fill="#000000" opacity="1" stroke-width="4" stroke="none"></path><path d="M1023.39 1013.23L1006.34 1010.05" stroke="#000000" stroke-width="4" stroke-linecap="round" stroke-linejoin="round" opacity="1" fill="none"></path><path d="M1017.42 1028.06L1002.1 1021.6" stroke="#000000" stroke-width="4" stroke-linecap="round" stroke-linejoin="round" opacity="1" fill="none"></path><path d="M771.76 568.81C771.76 568.81 802.57 472.41 825.88 444.29 839.07 428.21 869.12 428.79 870.27 428.79L870.66 424.26 870.85 421.08 930.94 422.43C930.75 425.51 930.75 428.02 930.55 430.71 950.87 436.59 966.76 449.01 983.13 480.89 996.13 506.21 1013.95 555.23 1015.97 579.4 1018.28 608.29 996.33 622.35 977.16 623.79 973.02 624.08 969.94 623.99 966.28 623.12L950.78 601.36C920.73 601.36 873.64 600.78 843.4 600.87 843.31 600.87 843.31 600.87 843.31 600.78 843.21 599.24 842.34 578.24 842.25 576.61 823.95 616.28 785.91 652.78 737.19 674.83H737.09C736.42 674.06 726.4 663.37 716.48 652.78 706.66 642.28 697.32 631.79 697.13 631.59 736.61 596.83 771.66 568.9 771.76 568.81Z" fill="#61ccff" opacity="1" stroke-width="4" stroke="none"></path><path d="M872.87 601.55C872.87 601.55 843.69 765.93 843.88 832.95 844.08 881.87 852.46 916.35 854.48 971.14" stroke="#000000" stroke-width="4" stroke-linecap="round" stroke-linejoin="round" opacity="1" fill="none"></path><path d="M956.17 572.56L967.73 576.41" stroke="#24343b" stroke-width="4" stroke-linecap="round" stroke-linejoin="round" opacity="1" fill="none"></path><path d="M951.35 601.55L959.15 548.97" stroke="#24343b" stroke-width="4" stroke-linecap="round" stroke-linejoin="round" opacity="1" fill="none"></path><path d="M842.25 576.41L854.38 547.43" stroke="#24343b" stroke-width="4" stroke-linecap="round" stroke-linejoin="round" opacity="1" fill="none"></path><path d="M977.07 623.79C972.83 624.08 969.75 623.99 966.38 623.12L950.87 601.36 959.25 549.07C959.35 549.07 959.35 549.07 959.35 548.97 972.25 554.07 967.34 588.26 969.36 602.9 970.9 613.97 976.49 622.64 977.26 623.79 977.16 623.7 977.16 623.79 977.07 623.79Z" fill="#24343b" opacity="0.15" stroke-width="4" stroke="none"></path><path d="M842.25 576.41L854.29 547.43C854.29 547.33 854.38 547.33 854.48 547.43L883.27 600.1C883.46 600.49 883.17 601.07 882.69 601.07L843.4 600.87 843.31 600.78 842.25 576.41C842.25 576.41 842.25 576.51 842.25 576.41Z" fill="#24343b" opacity="0.15" stroke-width="4" stroke="none"></path><path d="M975.53 646.91L961.47 647" stroke="#000000" stroke-width="4" stroke-linecap="round" stroke-linejoin="round" opacity="1" fill="none"></path><path d="M927.66 647H890.98" stroke="#000000" stroke-width="4" stroke-linecap="round" stroke-linejoin="round" opacity="1" fill="none"></path></g></svg>